#!OML:ASF I:\Actors\actors\Patient Classification 1\Patient 1\Session 1\Subject1.ASF
:FULLY-SPECIFIED
:DEGREES
445
root -1.94776 17.5446 8.54372 6.67371 29.6274 -4.63426
lowerback 5.27616 5.09701 6.36652
upperback -9.53706 7.81982 0.191399
thorax -12.5303 3.19668 -4.5209
lowerneck -4.35443 -13.9756 -11.8687
upperneck 7.46558 -18.9977 11.0501
head 5.135 -9.23525 3.82705
rclavicle 2.25869e-014 -5.1684e-015
rhumerus -13.3455 7.7707 -79.9893
rradius 48.3388
rwrist -10.8197
rhand -3.34804 -49.9717
rfingers 7.12502
rthumb 22.3799 -78.6954
lclavicle 2.25869e-014 -5.1684e-015
lhumerus -63.6023 26.6014 45.2308
lradius 40.7167
lwrist -7.0299
lhand -25.5607 -23.1827
lfingers 7.12502
lthumb 0.970073 6.79483
rfemur 4.05031 17.2065 32.8324
rtibia -0.752914
rfoot -24.6746 -40.3231
rtoes 29.1657
lfemur -8.72451 -34.2609 -4.16388
ltibia 2.58244
lfoot -5.34385 16.8716
ltoes -20.1611
446
root -1.93169 17.5454 8.54501 6.79153 29.3302 -4.74529
lowerback 5.31178 5.01239 6.54983
upperback -9.63351 7.74088 0.220529
thorax -12.6592 3.13395 -4.58957
lowerneck -4.48982 -13.8085 -11.5747
upperneck 7.72553 -18.7587 10.688
head 5.14619 -9.1196 3.69469
rclavicle -9.57645e-014 -4.39314e-014
rhumerus -12.4342 5.88856 -80.12
rradius 50.5207
rwrist -7.67926
rhand -2.62595 -49.1662
rfingers 7.12502
rthumb 23.0729 -77.8048
lclavicle -9.57645e-014 -4.39314e-014
lhumerus -63.7588 26.544 44.7542
lradius 39.8945
lwrist -7.86463
lhand -25.3892 -23.4478
lfingers 7.12502
lthumb 1.13567 6.52896
rfemur 3.92808 17.3068 32.8183
rtibia -0.787501
rfoot -24.4328 -40.1396
rtoes 28.4672
lfemur -8.78771 -34.2535 -4.03722
ltibia 2.63859
lfoot -5.42602 17.1031
ltoes -20.4008
447
root -1.91601 17.5457 8.54393 6.89825 29.0029 -4.93533
lowerback 5.31245 4.9397 6.85006
upperback -9.69326 7.68572 0.251018
thorax -12.708 3.07619 -4.71582
lowerneck -4.62335 -13.6219 -11.3747
upperneck 7.92598 -18.5012 10.5004
head 5.16456 -8.99034 3.6291
rclavicle -4.09993e-015 3.11098e-014
rhumerus -10.732 8.61827 -78.997
rradius 52.8479
rwrist -8.71391
rhand -3.03371 -49.3236
rfingers 7.12502
rthumb 22.6816 -78.0106
lclavicle -4.09993e-015 3.11098e-014
lhumerus -63.7299 26.6553 44.1135
lradius 38.9425
lwrist -9.097
lhand -25.0315 -23.6178
lfingers 7.12502
lthumb 1.48119 6.35684
rfemur 3.78383 17.5293 32.8904
rtibia -0.832035
rfoot -24.212 -40.0438
rtoes 27.7288
lfemur -8.88166 -34.1271 -3.79074
ltibia 2.64498
lfoot -5.54022 17.2691
ltoes -20.4665
448
root -1.8994 17.5468 8.54001 7.04602 28.6892 -5.02771
lowerback 5.3438 4.88235 7.11477
upperback -9.74073 7.64485 0.244845
thorax -12.759 3.02595 -4.86715
lowerneck -4.62682 -13.4664 -11.2678
upperneck 8.03595 -18.2931 10.3922
head 5.15616 -8.88995 3.60453
rclavicle 2.13694e-014 1.48095e-014
rhumerus -9.66851 7.30337 -78.6889
rradius 56.5798
rwrist -6.89
rhand -3.40952 -48.7588
rfingers 7.12502
rthumb 22.3209 -77.4895
lclavicle 2.13694e-014 1.48095e-014
lhumerus -63.6551 26.8658 43.3989
lradius 38.0579
lwrist -10.5721
lhand -24.7626 -23.8507
lfingers 7.12502
lthumb 1.74084 6.12192
rfemur 3.64613 17.6796 32.8427
rtibia -0.911335
rfoot -23.9644 -39.914
rtoes 27.5661
lfemur -8.94055 -34.1781 -3.6695
ltibia 2.59828
lfoot -5.63543 17.5977
ltoes -20.2032
449
root -1.88339 17.5479 8.53444 7.19161 28.4265 -5.09801
lowerback 5.4103 4.83265 7.35855
upperback -9.74703 7.61418 0.258857
thorax -12.7877 2.98535 -4.98777
lowerneck -4.634 -13.3592 -11.2107
upperneck 8.05822 -18.1382 10.2793
head 5.1314 -8.81818 3.58085
rclavicle 1.2921e-014 2.44505e-014
rhumerus -8.10495 8.12938 -77.5082
rradius 60.4005
rwrist -7.51618
rhand -3.98838 -49.0058
rfingers 7.12502
rthumb 21.7651 -77.8021
lclavicle 1.2921e-014 2.44505e-014
lhumerus -63.5063 27.2055 42.737
lradius 37.3041
lwrist -11.9092
lhand -24.5418 -24.0965
lfingers 7.12502
lthumb 1.95413 5.87426
rfemur 3.53091 17.7907 32.7772
rtibia -1.02444
rfoot -23.738 -39.8011
rtoes 27.5336
lfemur -8.98682 -34.3033 -3.5917
ltibia 2.53061
lfoot -5.7156 17.9759
ltoes -19.9897
450
root -1.87168 17.5501 8.52947 7.26075 28.0947 -5.25251
lowerback 5.5674 4.83023 7.54054
upperback -9.72549 7.65843 0.367896
thorax -12.851 2.99042 -4.99009
lowerneck -4.67817 -13.2514 -11.0962
upperneck 7.98865 -17.962 10.0546
head 5.06642 -8.73971 3.51905
rclavicle -7.18607e-014 -1.37161e-014
rhumerus -6.39368 8.68815 -76.1008
rradius 64.2382
rwrist -7.84357
rhand -4.19297 -48.9892
rfingers 7.12502
rthumb 21.5686 -77.8081
lclavicle -7.18607e-014 -1.37161e-014
lhumerus -63.3963 27.6374 42.1365
lradius 36.7629
lwrist -12.808
lhand -24.5009 -24.1913
lfingers 7.12502
lthumb 1.99363 5.7791
rfemur 3.44267 17.9506 32.8258
rtibia -1.10887
rfoot -23.4716 -39.7049
rtoes 27.716
lfemur -8.91055 -34.3051 -3.45702
ltibia 2.38362
lfoot -5.7976 18.3048
ltoes -19.9275
451
root -1.8628 17.5533 8.52593 7.36599 27.7814 -5.33123
lowerback 5.75238 4.86235 7.58922
upperback -9.72454 7.73892 0.473496
thorax -12.9656 3.02233 -4.93379
lowerneck -4.69374 -13.1719 -10.8987
upperneck 7.93752 -17.8187 9.68175
head 4.98495 -8.68259 3.40027
rclavicle 6.18966e-014 3.77691e-015
rhumerus -4.62785 8.95861 -74.6478
rradius 67.7414
rwrist -7.63148
rhand -4.33102 -48.5428
rfingers 7.12502
rthumb 21.4361 -77.3769
lclavicle 6.18966e-014 3.77691e-015
lhumerus -63.2731 27.9512 41.6518
lradius 36.3896
lwrist -13.0655
lhand -24.7179 -24.0878
lfingers 7.12502
lthumb 1.78399 5.88449
rfemur 3.34643 18.1579 32.8185
rtibia -1.17481
rfoot -23.2237 -39.6772
rtoes 27.767
lfemur -8.81052 -34.4036 -3.38068
ltibia 2.18911
lfoot -5.83134 18.7142
ltoes -19.9495
